<?xml version="1.0" encoding="UTF-8" standalone="no"?>
<!DOCTYPE svg PUBLIC "-//W3C//DTD SVG 1.1//EN" "http://www.w3.org/Graphics/SVG/1.1/DTD/svg11.dtd">
<svg width="100%" height="100%" viewBox="0 0 4950 2723" version="1.1" xmlns="http://www.w3.org/2000/svg" xmlns:xlink="http://www.w3.org/1999/xlink" xml:space="preserve" xmlns:serif="http://www.serif.com/" style="fill-rule:evenodd;clip-rule:evenodd;stroke-linejoin:round;stroke-miterlimit:2;">
    <g transform="matrix(5.55556,0,0,5.55556,0,0)">
        <rect x="182.972" y="0.399" width="703.576" height="450.601" style="fill:rgb(230,230,230);"/>
        <rect x="245.187" y="60.907" width="254" height="261" style="fill:white;"/>
        <rect x="594.187" y="65.969" width="254" height="317" style="fill:white;"/>
        <ellipse cx="844.802" cy="477.262" rx="45.5" ry="6.5" style="fill:rgb(230,230,230);"/>
        <ellipse cx="389.9" cy="477.407" rx="45.5" ry="6.5" style="fill:rgb(230,230,230);"/>
        <ellipse cx="104.425" cy="470.907" rx="104.425" ry="5" style="fill:rgb(230,230,230);"/>
        <rect x="182.672" y="0" width="703.576" height="29.89" style="fill:rgb(62,175,124);"/>
        <circle cx="204.884" cy="15.282" r="5.54" style="fill:rgb(230,230,230);"/>
        <circle cx="225.913" cy="15.282" r="5.54" style="fill:rgb(230,230,230);"/>
        <circle cx="246.941" cy="15.282" r="5.54" style="fill:rgb(230,230,230);"/>
        <g transform="matrix(1,0,0,1,-154.849,-205.35)">
            <path d="M947.036,356.349L945.497,356.349L945.498,314.198C945.498,300.815 934.485,289.803 921.102,289.803L831.8,289.803C818.417,289.803 807.405,300.815 807.405,314.198L807.405,545.44C807.405,558.823 818.417,569.835 831.8,569.835L921.102,569.835C934.485,569.835 945.498,558.823 945.498,545.44L945.497,386.352L947.036,386.352L947.036,356.349Z" style="fill:rgb(63,61,86);fill-rule:nonzero;"/>
        </g>
        <g transform="matrix(1,0,0,1,-154.849,-205.35)">
            <path d="M921.086,296.15L909.429,296.15C909.853,297.187 910.07,298.298 910.07,299.418C910.07,304.166 906.164,308.074 901.416,308.074L850.256,308.074C845.508,308.074 841.601,304.166 841.601,299.418C841.601,298.298 841.819,297.187 842.242,296.15L831.354,296.149C821.36,296.149 813.136,304.374 813.136,314.368L813.136,545.27C813.136,555.264 821.36,563.488 831.354,563.488L921.086,563.488C931.081,563.488 939.305,555.264 939.305,545.27L939.305,314.368C939.305,304.374 931.081,296.149 921.086,296.15Z" style="fill:white;fill-rule:nonzero;"/>
        </g>
        <rect x="284.09" y="225.776" width="176.544" height="8.053" style="fill:rgb(230,230,230);"/>
        <g transform="matrix(1,0,0,1,-0.17542,-23)">
            <rect x="284.09" y="225.776" width="176.544" height="8.053" style="fill:rgb(230,230,230);"/>
        </g>
        <rect x="284.09" y="251.776" width="176.544" height="8.053" style="fill:rgb(62,175,124);"/>
        <rect x="284.09" y="277.776" width="176.544" height="8.053" style="fill:rgb(230,230,230);"/>
        <g transform="matrix(1,0,0,1,0,-65)">
            <rect x="670.839" y="243.346" width="103.064" height="8.053" style="fill:rgb(230,230,230);"/>
        </g>
        <g transform="matrix(1,0,0,1,0,-90.6988)">
            <rect x="670.839" y="243.346" width="103.064" height="8.053" style="fill:rgb(230,230,230);"/>
        </g>
        <g transform="matrix(1,0,0,1,0,-65)">
            <rect x="670.839" y="268.346" width="103.064" height="8.053" style="fill:rgb(230,230,230);"/>
        </g>
        <g transform="matrix(1,0,0,1,0,-65)">
            <rect x="670.839" y="293.346" width="103.064" height="8.053" style="fill:rgb(230,230,230);"/>
        </g>
        <g transform="matrix(-3.82857e-16,1,-1,-3.82857e-16,1391.24,-521.137)">
            <rect x="922.351" y="606.563" width="17.177" height="17.177" style="fill:rgb(63,61,86);"/>
        </g>
        <g transform="matrix(-3.82857e-16,1,-1,-3.82857e-16,1363.57,-493.463)">
            <rect x="894.676" y="606.563" width="17.177" height="17.177" style="fill:rgb(62,175,124);"/>
        </g>
        <g transform="matrix(-3.82857e-16,1,-1,-3.82857e-16,1335.89,-465.788)">
            <rect x="867.002" y="606.563" width="17.177" height="17.177" style="fill:rgb(63,61,86);"/>
        </g>
        <g transform="matrix(-3.82857e-16,1,-1,-3.82857e-16,1308.22,-438.114)">
            <rect x="839.327" y="606.563" width="17.177" height="17.177" style="fill:rgb(63,61,86);"/>
        </g>
        <g transform="matrix(-3.82857e-16,1,-1,-3.82857e-16,1280.54,-410.439)">
            <rect x="811.653" y="606.563" width="17.177" height="17.177" style="fill:rgb(63,61,86);"/>
        </g>
        <g transform="matrix(1,0,0,1,-154.849,-205.35)">
            <path d="M504.454,480.943L503.713,482.425L501.49,471.308C501.49,471.308 498.525,459.45 504.454,459.45C510.384,459.45 508.901,471.308 508.901,471.308L508.901,479.461L504.454,480.943Z" style="fill:rgb(160,97,106);fill-rule:nonzero;"/>
        </g>
        <g transform="matrix(1,0,0,1,-154.849,-205.35)">
            <path d="M601.696,479.425L602.437,480.908L604.66,469.791C604.66,469.791 607.625,457.932 601.696,457.932C595.766,457.932 597.249,469.791 597.249,469.791L597.249,477.943L601.696,479.425Z" style="fill:rgb(160,97,106);fill-rule:nonzero;"/>
        </g>
        <path d="M382.215,358.94L373.322,413.784L377.768,467.145L388.144,462.699L386.662,422.677L397.038,390.808L399.261,428.606L394.815,467.886L408.155,469.369L417.79,388.585L417.049,361.163L382.215,358.94Z" style="fill:rgb(47,46,65);fill-rule:nonzero;"/>
        <g transform="matrix(1,0,0,1,-154.849,-205.35)">
            <path d="M537.064,665.825L531.876,673.978L531.876,692.194C531.877,693.273 532.667,694.202 533.733,694.374C536.276,694.792 540.703,695.088 542.252,692.506C544.476,688.8 542.993,680.648 542.993,680.648C542.993,680.648 545.958,674.719 544.476,670.272C542.993,665.825 541.511,665.084 541.511,665.084L537.064,665.825Z" style="fill:rgb(47,46,65);fill-rule:nonzero;"/>
        </g>
        <g transform="matrix(1,0,0,1,-154.849,-205.35)">
            <path d="M559.298,673.237L560.781,675.46C560.781,675.46 563.004,677.683 561.522,679.166C560.434,680.318 559.442,681.557 558.557,682.871C557.672,684.186 550.405,685.095 550.405,682.13L550.405,672.495L559.298,673.237Z" style="fill:rgb(47,46,65);fill-rule:nonzero;"/>
        </g>
        <circle cx="401.778" cy="288.795" r="9.824" style="fill:rgb(160,97,106);"/>
        <path d="M395.185,291.867L394.444,305.949L407.784,306.69L407.043,292.608L395.185,291.867Z" style="fill:rgb(160,97,106);fill-rule:nonzero;"/>
        <g transform="matrix(1,0,0,1,-154.849,-205.35)">
            <path d="M564.486,512.41L562.382,507.271C562.382,507.271 552.628,503.517 549.664,507.222L548.181,511.669L536.323,508.705L529.653,523.527L535.582,565.772C535.582,565.772 551.146,585.783 571.898,566.513L577.827,526.492L573.38,510.928L564.486,512.41Z" style="fill:rgb(87,90,137);fill-rule:nonzero;"/>
        </g>
        <path d="M417.049,308.543L418.531,305.578L433.354,296.684L442.4,269.907L449.4,272.907L441.506,304.837L420.013,324.847L417.049,308.543Z" style="fill:rgb(87,90,137);fill-rule:nonzero;"/>
        <path d="M382.956,304.837L381.474,303.355L365.91,293.72L354.793,271.486L345.9,274.45L355.534,301.872L379.251,321.142L382.956,304.837Z" style="fill:rgb(87,90,137);fill-rule:nonzero;"/>
        <g transform="matrix(1,0,0,1,-154.849,-205.35)">
            <path d="M563.919,479.1L565.525,478.297L563.116,477.494L563.116,476.691C563.116,476.691 551.069,471.872 549.462,479.904C545.218,485.607 545.218,493.475 549.462,499.179L549.462,501.588L562.313,503.195L563.919,498.376C563.919,498.376 571.95,483.919 563.919,479.1Z" style="fill:rgb(47,46,65);fill-rule:nonzero;"/>
        </g>
        <g transform="matrix(1,0,0,1,-154.849,-205.35)">
            <path d="M269.939,565.16L267.083,566.587C267.083,566.587 255.662,571.822 258.993,574.678C262.324,577.533 271.367,571.822 271.367,571.822L273.27,569.443L269.939,565.16Z" style="fill:rgb(255,184,184);fill-rule:nonzero;"/>
        </g>
        <path d="M198.633,359.099L189.807,418.346L176.481,459.749L169.343,456.418L176.005,399.786L156.969,383.605L158.397,359.81L198.633,359.099Z" style="fill:rgb(47,46,65);fill-rule:nonzero;"/>
        <g transform="matrix(1,0,0,1,-154.849,-205.35)">
            <path d="M323.24,663.196C323.24,663.196 331.33,658.913 331.806,665.099L330.855,671.286C330.855,671.286 333.71,682.232 324.192,679.852C314.674,677.473 321.336,670.334 321.336,670.334L323.24,663.196Z" style="fill:rgb(47,46,65);fill-rule:nonzero;"/>
        </g>
        <g transform="matrix(1,0,0,1,-154.849,-205.35)">
            <path d="M318.005,583.72L311.818,588.955C311.818,588.955 311.818,621.316 316.102,626.075C320.385,630.834 347.511,655.105 348.463,656.057C349.415,657.009 353.698,646.539 353.698,646.539L327.999,616.557L329.903,597.997L318.005,583.72Z" style="fill:rgb(47,46,65);fill-rule:nonzero;"/>
        </g>
        <g transform="matrix(1,0,0,1,-154.849,-205.35)">
            <path d="M350.842,645.112C350.842,645.112 358.457,643.684 358.457,648.919C358.552,653.057 358.869,657.188 359.409,661.292C359.948,665.397 361.312,677.949 355.126,675.569C348.939,673.19 346.559,656.533 346.559,656.533C347.135,655.149 348.135,653.982 349.415,653.202C351.318,652.25 350.842,645.112 350.842,645.112Z" style="fill:rgb(47,46,65);fill-rule:nonzero;"/>
        </g>
        <path d="M172.198,288.424L173.626,306.033L169.819,312.695L159.349,302.701L158.397,289.376L172.198,288.424Z" style="fill:rgb(255,184,184);fill-rule:nonzero;"/>
        <circle cx="163.632" cy="282.713" r="11.422" style="fill:rgb(255,184,184);"/>
        <path d="M168.391,305.557L173.15,291.756L181.716,301.274L197.421,361.713L185.523,368.852L180.289,361.237L179.337,371.231L156.017,366.472L154.114,302.701L158.87,296.002L168.391,305.557Z" style="fill:rgb(208,205,225);fill-rule:nonzero;"/>
        <path d="M161.728,373.135L158.873,296.039L152.686,300.798L141.264,308.412L148.879,335.539L151.258,364.093L161.728,373.135Z" style="fill:rgb(47,46,65);fill-rule:nonzero;"/>
        <path d="M144.596,308.888L141.264,308.412L131.746,336.49L112.71,360.286L119.849,367.9L141.74,346.484L149.831,328.876L144.596,308.888Z" style="fill:rgb(47,46,65);fill-rule:nonzero;"/>
        <g transform="matrix(1,0,0,1,-154.849,-205.35)">
            <path d="M351.417,565.595L350.768,568.721C350.768,568.721 347.797,580.929 352.103,580.084C356.408,579.24 357.531,568.604 357.531,568.604L356.843,565.636L351.417,565.595Z" style="fill:rgb(255,184,184);fill-rule:nonzero;"/>
        </g>
        <path d="M172.406,290.983L195.993,300.322L193.138,328.876L198.849,360.286L193.138,366.472L172.022,295.028L172.406,290.983Z" style="fill:rgb(47,46,65);fill-rule:nonzero;"/>
        <g transform="matrix(1,0,0,1,-154.849,-205.35)">
            <path d="M319.079,468.881L322.432,467.204L322.432,468.881L324.667,467.763L324.667,470.557C324.667,470.557 333.048,476.703 331.372,483.967C329.696,491.231 329.696,491.79 329.696,491.79C329.696,491.79 327.576,477.976 319.195,480.211C310.813,482.446 310.139,482.85 307.904,488.996L307.297,491.633C307.297,491.633 297.846,469.998 319.079,468.881Z" style="fill:rgb(47,46,65);fill-rule:nonzero;"/>
        </g>
        <path d="M192.662,300.322L196.469,300.322L202.656,333.635L202.656,362.665L195.042,361.237L188.855,317.454L192.662,300.322Z" style="fill:rgb(47,46,65);fill-rule:nonzero;"/>
        <rect x="3.535" y="370.772" width="140.321" height="97.511" style="fill:rgb(62,175,124);"/>
        <g transform="matrix(1,0,0,1,-154.849,-205.35)">
            <path d="M963.051,496.584L963.867,491.324C963.867,491.324 968.62,480.519 964.863,479.936C961.106,479.354 957.972,489.64 957.972,489.64L959.347,500.626L963.051,496.584Z" style="fill:rgb(255,184,184);fill-rule:nonzero;"/>
        </g>
        <path d="M846.67,321.051L813.089,314.306L809.187,289.847L799.302,289.084L799.785,320.707L828.962,336.004L846.67,321.051Z" style="fill:rgb(87,90,137);fill-rule:nonzero;"/>
        <path d="M846.67,321.051L813.089,314.306L809.187,289.847L799.302,289.084L799.785,320.707L828.962,336.004L846.67,321.051Z" style="fill-opacity:0.2;fill-rule:nonzero;"/>
        <g transform="matrix(-1,7.65714e-16,-7.65714e-16,-1,1768.54,766.826)">
            <rect x="910.162" y="482.062" width="103.064" height="8.053" style="fill:rgb(62,175,124);"/>
        </g>
        <g transform="matrix(1,0,0,1,-154.849,-205.35)">
            <path d="M956.49,494.78L956.497,489.458C956.497,489.458 959.553,478.056 955.751,478.051C951.949,478.046 950.415,488.69 950.415,488.69L953.443,499.339L956.49,494.78Z" style="fill:rgb(255,184,184);fill-rule:nonzero;"/>
        </g>
        <g transform="matrix(1,0,0,1,-154.849,-205.35)">
            <path d="M1000.2,510.025L1004.81,508.902L1004.83,508.902C1011.33,508.902 1016.69,503.547 1016.69,497.04C1016.69,496.251 1016.61,495.464 1016.45,494.691L1016.45,494.671C1016.45,486.173 1009.47,479.178 1000.97,479.167L1000.95,479.167C992.449,479.167 985.454,486.154 985.443,494.652C985.125,495.758 984.964,496.904 984.964,498.055C984.964,504.814 990.526,510.375 997.284,510.375C998.268,510.375 999.247,510.258 1000.2,510.025Z" style="fill:rgb(47,46,65);fill-rule:nonzero;"/>
        </g>
        <path d="M818.254,381.458L822.005,422.524L828.797,462.833L840.203,462.847L838.732,423.305L832.709,375.393L818.254,381.458Z" style="fill:rgb(47,46,65);fill-rule:nonzero;"/>
        <g transform="matrix(1,0,0,1,-154.849,-205.35)">
            <path d="M985.17,665.904L977.561,670.457C977.561,670.457 965.392,671.962 967.669,675.767C969.945,679.572 996.562,677.324 996.564,675.803C996.565,674.282 995.816,665.917 994.295,665.915L985.17,665.904Z" style="fill:rgb(47,46,65);fill-rule:nonzero;"/>
        </g>
        <g transform="matrix(1,0,0,1,-154.849,-205.35)">
            <path d="M1006.77,583.261C1006.77,583.261 1006.56,589.131 1001.22,598.249L1001.95,626.385L1029.28,661.397L1019.38,669.749L985.974,631.687L977.667,586.054L988.325,575.422L1006.77,583.261Z" style="fill:rgb(47,46,65);fill-rule:nonzero;"/>
        </g>
        <g transform="matrix(1,0,0,1,-154.849,-205.35)">
            <path d="M1027,661.394C1027,661.394 1036.12,662.926 1034.59,666.726C1033.07,670.526 1029.25,688.01 1019.36,685.717C1019.36,685.717 1014.8,685.711 1016.33,682.671C1017.24,680.843 1018.26,679.067 1019.37,677.353L1019.39,667.468L1027,661.394Z" style="fill:rgb(47,46,65);fill-rule:nonzero;"/>
        </g>
        <circle cx="840.415" cy="294.041" r="11.406" style="fill:rgb(255,184,184);"/>
        <path d="M845.728,301.652L845.712,314.578L833.546,314.563L835.083,301.639L845.728,301.652Z" style="fill:rgb(255,184,184);fill-rule:nonzero;"/>
        <g transform="matrix(1,0,0,1,-154.849,-205.35)">
            <path d="M985.359,515.347L989.046,514.442L1000.57,515.366C1000.57,515.366 1006.64,521.457 1005.88,522.977C1005.12,524.497 1001.27,561.751 1001.27,561.751L1008.08,588.373L983.745,589.863L971.581,588.327L973.922,540.426C973.922,540.426 968.616,527.492 975.464,523.699C979.332,521.67 982.709,518.819 985.359,515.347Z" style="fill:rgb(87,90,137);fill-rule:nonzero;"/>
        </g>
        <path d="M844.193,313.056L809.978,311.492L802.404,287.911L792.518,288.658L797.801,319.841L828.964,330.526L844.193,313.056Z" style="fill:rgb(87,90,137);fill-rule:nonzero;"/>
        <circle cx="862.432" cy="278.279" r="7.359" style="fill:rgb(47,46,65);"/>
        <g transform="matrix(1,0,0,1,-154.849,-205.35)">
            <path d="M1010.49,479.674C1010.5,475.641 1013.81,472.324 1017.85,472.324C1018.34,472.324 1018.82,472.372 1019.3,472.469C1018.32,472.004 1017.24,471.764 1016.16,471.764C1012.12,471.764 1008.8,475.084 1008.8,479.119C1008.8,482.611 1011.29,485.645 1014.71,486.331C1012.14,485.119 1010.49,482.518 1010.49,479.674Z" style="fill:rgb(47,46,65);fill-rule:nonzero;"/>
        </g>
        <g transform="matrix(1,0,0,1,-154.849,-205.35)">
            <path d="M1004.18,483.847L994.258,482.02L986.628,486.802C982.805,489.199 980.717,493.622 981.297,498.097L988.938,496.16L990.649,491.869L992.687,495.21L1000.95,509.664L1009.32,505.112L1014.66,496.754L1004.18,483.847Z" style="fill:rgb(47,46,65);fill-rule:nonzero;"/>
        </g>
        <g transform="matrix(0.165103,0,0,0.165103,329.921,85.3704)">
            <path d="M256,0C114.843,0 0,114.843 0,256C0,397.157 114.843,512 256,512C397.157,512 512,397.157 512,256C512,114.843 397.156,0 256,0ZM288,416L224,416L224,352L288,352L288,416ZM320,269.25L288,301.25L288,320L224,320L224,288C224,279.516 227.375,271.375 233.375,265.375L274.75,224C283.171,215.579 288,203.907 288,192C288,174.36 273.64,160.001 256,160.001C238.36,160.001 224,174.36 224,192L224,224L160.001,224L160.001,192C160.001,139.063 203.063,96 256.001,96C308.939,96 352.001,139.062 352.001,192C352,221.188 340.64,248.625 320,269.25Z" style="fill:rgb(62,175,124);fill-rule:nonzero;"/>
        </g>
        <g transform="matrix(0.120181,0,0,0.120181,42.929,388.761)">
            <path d="M256,0C114.843,0 0,114.843 0,256C0,397.157 114.843,512 256,512C397.157,512 512,397.157 512,256C512,114.843 397.156,0 256,0ZM288,416L224,416L224,352L288,352L288,416ZM320,269.25L288,301.25L288,320L224,320L224,288C224,279.516 227.375,271.375 233.375,265.375L274.75,224C283.171,215.579 288,203.907 288,192C288,174.36 273.64,160.001 256,160.001C238.36,160.001 224,174.36 224,192L224,224L160.001,224L160.001,192C160.001,139.063 203.063,96 256.001,96C308.939,96 352.001,139.062 352.001,192C352,221.188 340.64,248.625 320,269.25Z" style="fill:white;fill-rule:nonzero;"/>
        </g>
    </g>
</svg>
